<svg xmlns="http://www.w3.org/2000/svg" version="1.1" xmlns:xlink="http://www.w3.org/1999/xlink" xmlns:svgjs="http://svgjs.dev/svgjs" width="2000" height="383" viewBox="0 0 2000 383"><g transform="matrix(1,0,0,1,-1.2121212121212466,0.4603686273046321)"><svg viewBox="0 0 396 76" data-background-color="#000000" preserveAspectRatio="xMidYMid meet" height="383" width="2000" xmlns="http://www.w3.org/2000/svg" xmlns:xlink="http://www.w3.org/1999/xlink"><g id="tight-bounds" transform="matrix(1,0,0,1,0.2400000000000091,-0.09135252134504412)"><svg viewBox="0 0 395.52 76.18270504269007" height="76.18270504269007" width="395.52"><g><svg viewBox="0 0 395.52 76.18270504269007" height="76.18270504269007" width="395.52"><g><svg viewBox="0 0 395.52 76.18270504269007" height="76.18270504269007" width="395.52"><g id="textblocktransform"><svg viewBox="0 0 395.52 76.18270504269007" height="76.18270504269007" width="395.52" id="textblock"><g><svg viewBox="0 0 395.52 52.85114410480349" height="52.85114410480349" width="395.52"><g transform="matrix(1,0,0,1,0,0)"><svg width="395.52" viewBox="3.55 -37.65 286.22999999999996 38.25" height="52.85114410480349" data-palette-color="#ffffff"><path d="M28.25 0L23.45 0 23.25-6.25 23.25-18Q23.25-20.95 21.33-22.63 19.4-24.3 16.05-24.3L16.05-24.3Q12.8-24.3 10.75-22.83 8.7-21.35 8.5-18.75L8.5-18.75 3.55-18.75Q3.8-21.7 5.45-23.78 7.1-25.85 9.85-26.98 12.6-28.1 16.2-28.1L16.2-28.1Q19.9-28.1 22.6-26.88 25.3-25.65 26.78-23.35 28.25-21.05 28.25-17.75L28.25-17.75 28.25 0ZM13.5 0.6L13.5 0.6Q10.8 0.6 8.75-0.38 6.7-1.35 5.55-3.18 4.4-5 4.4-7.45L4.4-7.45Q4.4-11.7 7.68-14.05 10.95-16.4 16.85-16.4L16.85-16.4 23.9-16.4 23.9-12.65 16.65-12.65Q13.25-12.65 11.33-11.35 9.4-10.05 9.4-7.7L9.4-7.7Q9.4-5.75 10.78-4.65 12.15-3.55 14.5-3.55L14.5-3.55Q17.5-3.55 19.83-5.18 22.15-6.8 23.6-9.65L23.6-9.65 24.15-5.95Q22.85-2.8 20.15-1.1 17.45 0.6 13.5 0.6ZM60.6 0L37.05 0 37.05-3.7 49.7-18.25 54.55-23.45 47.35-23.4 37.75-23.4 37.75-27.5 60.6-27.5 60.6-23.9 47.9-9.3 43-4.05 50.2-4.1 60.6-4.1 60.6 0ZM93.25 0L88.45 0 88.25-6.25 88.25-18Q88.25-20.95 86.32-22.63 84.4-24.3 81.05-24.3L81.05-24.3Q77.8-24.3 75.75-22.83 73.7-21.35 73.5-18.75L73.5-18.75 68.55-18.75Q68.8-21.7 70.45-23.78 72.09-25.85 74.84-26.98 77.59-28.1 81.2-28.1L81.2-28.1Q84.9-28.1 87.59-26.88 90.3-25.65 91.77-23.35 93.25-21.05 93.25-17.75L93.25-17.75 93.25 0ZM78.5 0.6L78.5 0.6Q75.8 0.6 73.75-0.38 71.7-1.35 70.55-3.18 69.4-5 69.4-7.45L69.4-7.45Q69.4-11.7 72.67-14.05 75.95-16.4 81.84-16.4L81.84-16.4 88.9-16.4 88.9-12.65 81.65-12.65Q78.25-12.65 76.32-11.35 74.4-10.05 74.4-7.7L74.4-7.7Q74.4-5.75 75.77-4.65 77.15-3.55 79.5-3.55L79.5-3.55Q82.5-3.55 84.82-5.18 87.15-6.8 88.59-9.65L88.59-9.65 89.15-5.95Q87.84-2.8 85.15-1.1 82.45 0.6 78.5 0.6ZM126.19 0L121.14 0 121.14-17.35Q121.14-20.25 119.49-22.03 117.84-23.8 115.19-23.8L115.19-23.8Q112.14-23.8 109.77-21.58 107.39-19.35 105.99-14.65L105.99-14.65 105.19-20.3Q106.74-24.2 109.67-26.15 112.59-28.1 116.04-28.1L116.04-28.1Q119.14-28.1 121.42-26.78 123.69-25.45 124.94-23.1 126.19-20.75 126.19-17.55L126.19-17.55 126.19 0ZM106.59 0L101.54 0 101.54-27.5 106.34-27.5 106.59-21.3 106.59 0ZM149.04 0L143.99 0 143.99-27.5 149.04-27.5 149.04 0ZM158.49 0L133.84 0 133.84-4.1 158.49-4.1 158.49 0ZM146.49-23.4L137.49-23.4 137.49-27.5 146.49-27.5 146.49-23.4ZM149.29-32.2L143.64-32.2 143.64-37.65 149.29-37.65 149.29-32.2ZM181.84 0L175.64 0 175.64-6.2 181.84-6.2 181.84 0ZM209.79-28.1L209.79-28.1Q212.64-28.1 214.99-26.98 217.34-25.85 218.79-23.85L218.79-23.85 218.79-36.75 223.79-36.75 223.79 0 219.04 0 218.89-3.85Q217.44-1.85 215.06-0.63 212.69 0.6 209.79 0.6L209.79 0.6Q206.14 0.6 203.34-1.25 200.54-3.1 198.96-6.35 197.39-9.6 197.39-13.75L197.39-13.75Q197.39-17.95 198.96-21.2 200.54-24.45 203.34-26.28 206.14-28.1 209.79-28.1ZM210.89-3.65L210.89-3.65Q213.59-3.65 215.69-5.18 217.79-6.7 218.79-9.3L218.79-9.3 218.79-18.25Q217.79-20.9 215.69-22.38 213.59-23.85 210.89-23.85L210.89-23.85Q208.39-23.85 206.49-22.58 204.59-21.3 203.51-19.03 202.44-16.75 202.44-13.75L202.44-13.75Q202.44-10.8 203.51-8.53 204.59-6.25 206.49-4.95 208.39-3.65 210.89-3.65ZM244.03 0.6L244.03 0.6Q239.78 0.6 236.68-1.13 233.58-2.85 231.93-6.08 230.28-9.3 230.28-13.8L230.28-13.8Q230.28-18.3 231.96-21.5 233.63-24.7 236.76-26.4 239.88-28.1 244.23-28.1L244.23-28.1Q250.88-28.1 254.13-24.43 257.38-20.75 256.98-14.35L256.98-14.35 234.28-14.35 234.33-18.15 251.83-18.1Q251.63-20.75 249.53-22.35 247.43-23.95 244.23-23.95L244.23-23.95Q239.93-23.95 237.63-21.25 235.33-18.55 235.33-13.6L235.33-13.6Q235.33-10.65 236.36-8.38 237.38-6.1 239.33-4.85 241.28-3.6 244.03-3.6L244.03-3.6Q247.28-3.6 249.46-5.15 251.63-6.7 252.13-9.35L252.13-9.35 257.18-9.35Q256.53-4.7 253.03-2.05 249.53 0.6 244.03 0.6ZM279.08 0L273.38 0 262.63-27.5 267.98-27.5 274.33-10.95 276.28-4.65 278.28-10.95 284.63-27.5 289.78-27.5 279.08 0Z" opacity="1" transform="matrix(1,0,0,1,0,0)" fill="#000000" class="wordmark-text-0" data-fill-palette-color="primary" id="text-0"></path></svg></g></svg></g><g transform="matrix(1,0,0,1,163.31020800000002,65.32803080048907)"><svg viewBox="0 0 232.20979199999996 10.854674242200996" height="10.854674242200996" width="232.20979199999996"><g transform="matrix(1,0,0,1,0,0)"><svg width="232.20979199999996" viewBox="4.49 -35.01 748.9 35.01" height="10.854674242200996" data-palette-color="#ffffff"><path d="M4.49 0L4.49-35.01 30-35.01 30-30 9.5-30 9.5-20 27-20 27-14.99 9.5-14.99 9.5 0 4.49 0ZM36.98-5L36.98-35.01 41.99-35.01 41.99-5 61.98-5 61.98-35.01 66.99-35.01 66.99-5Q66.99-3.98 66.6-3.06 66.21-2.15 65.52-1.46 64.84-0.78 63.93-0.39 63.01 0 61.98 0L61.98 0 41.99 0Q40.96 0 40.05-0.39 39.13-0.78 38.45-1.46 37.77-2.15 37.38-3.06 36.98-3.98 36.98-5L36.98-5ZM75.97-35.01L80.98-35.01 80.98-5 98.97-5 98.97 0 75.97 0 75.97-35.01ZM104.97-35.01L109.98-35.01 109.98-5 127.97-5 127.97 0 104.97 0 104.97-35.01ZM155.97-14.99L138.98-14.99Q137.95-14.99 137.04-15.39 136.12-15.8 135.44-16.47 134.76-17.14 134.37-18.05 133.97-18.97 133.97-20L133.97-20 133.97-30Q133.97-31.03 134.37-31.95 134.76-32.86 135.44-33.53 136.12-34.2 137.04-34.61 137.95-35.01 138.98-35.01L138.98-35.01 155.97-35.01Q157-35.01 157.91-34.61 158.83-34.2 159.51-33.53 160.2-32.86 160.59-31.95 160.98-31.03 160.98-30L160.98-30 160.98-25.49 155.97-25.49 155.97-30 138.98-30 138.98-20 155.97-20Q157-20 157.91-19.6 158.83-19.21 159.51-18.53 160.2-17.85 160.59-16.93 160.98-16.02 160.98-14.99L160.98-14.99 160.98-5Q160.98-3.98 160.59-3.06 160.2-2.15 159.51-1.46 158.83-0.78 157.91-0.39 157 0 155.97 0L155.97 0 138.49 0Q137.47 0 136.55-0.39 135.63-0.78 134.95-1.46 134.27-2.15 133.88-3.06 133.49-3.98 133.49-5L133.49-5 133.49-9.5 138.49-9.5 138.49-5 155.97-5 155.97-14.99ZM166.98-30L166.98-35.01 194.98-35.01 194.98-30 183.48-30 183.48 0 178.48 0 178.48-30 166.98-30ZM207.48-35.01L212.49-35.01 225.99 0 220.98 0 217.88-8.06 202.08-8.06 198.98 0 193.98 0 207.48-35.01ZM209.99-28.49L203.99-13.06 215.95-13.06 209.99-28.49ZM231.99-5L231.99-30Q231.99-31.03 232.38-31.95 232.77-32.86 233.45-33.53 234.14-34.2 235.05-34.61 235.97-35.01 236.99-35.01L236.99-35.01 255.99-35.01Q257.01-35.01 257.93-34.61 258.84-34.2 259.53-33.53 260.21-32.86 260.6-31.95 260.99-31.03 260.99-30L260.99-30 260.99-25.49 255.99-25.49 255.99-30 236.99-30 236.99-5 255.99-5 255.99-9.5 260.99-9.5 260.99-5Q260.99-3.98 260.6-3.06 260.21-2.15 259.53-1.46 258.84-0.78 257.93-0.39 257.01 0 255.99 0L255.99 0 236.99 0Q235.97 0 235.05-0.39 234.14-0.78 233.45-1.46 232.77-2.15 232.38-3.06 231.99-3.98 231.99-5L231.99-5ZM269-35.01L274-35.01 274-19.9 290.7-35.01 297.76-35.01 278.81-17.85 298.52 0 291.46 0 274-15.75 274 0 269 0 269-35.01ZM330.54 0L325.05 0 315.04-35.01 320.04-35.01 327.81-7.15 335.55-35.01 340.55-35.01 348.29-7.15 356.05-35.01 361.06-35.01 351.05 0 345.56 0 338.06-26.25 330.54 0ZM367.04 0L367.04-35.01 392.55-35.01 392.55-30 372.04-30 372.04-20 389.55-20 389.55-14.99 372.04-14.99 372.04-5 392.55-5 392.55 0 367.04 0ZM422.85-18.26L422.85-18.26Q423.94-17.92 424.85-17.29 425.75-16.65 426.39-15.66 427.02-14.67 427.36-13.33 427.7-11.99 427.7-10.25L427.7-10.25 427.7-8.5Q427.7 0 419.21 0L419.21 0 400.04 0 400.04-35.01 418.21-35.01Q426.7-35.01 426.7-26.49L426.7-26.49 426.7-25.85Q426.7-22.9 425.76-21.03 424.82-19.17 422.85-18.26ZM419.06-15.26L404.95-15.26 404.95-4.91 419.06-4.91Q421.04-4.91 421.92-5.83 422.8-6.76 422.8-8.74L422.8-8.74 422.8-11.45Q422.8-13.45 421.92-14.36 421.04-15.26 419.06-15.26L419.06-15.26ZM418.06-30.1L404.95-30.1 404.95-20.14 418.4-20.14Q420.21-20.21 421-21.13 421.8-22.05 421.8-23.95L421.8-23.95 421.8-26.25Q421.8-28.25 420.92-29.17 420.04-30.1 418.06-30.1L418.06-30.1ZM455.19-5L467.98-5Q471.47-5 473.35-6.88 475.23-8.76 475.23-12.26L475.23-12.26 475.23-22.75Q475.23-24.46 474.75-25.81 474.26-27.15 473.32-28.09 472.38-29.03 471.03-29.52 469.69-30 467.98-30L467.98-30 455.19-30 455.19-5ZM467.98 0L450.18 0 450.18-35.01 467.98-35.01Q470.79-35.01 473.05-34.14 475.31-33.28 476.91-31.68 478.51-30.08 479.37-27.81 480.24-25.54 480.24-22.75L480.24-22.75 480.24-12.26Q480.24-9.47 479.37-7.2 478.51-4.93 476.91-3.33 475.31-1.73 473.05-0.87 470.79 0 467.98 0L467.98 0ZM488.24 0L488.24-35.01 513.76-35.01 513.76-30 493.25-30 493.25-20 510.75-20 510.75-14.99 493.25-14.99 493.25-5 513.76-5 513.76 0 488.24 0ZM537.26 0L531.75 0 518.25-35.01 523.62-35.01 534.51-6.2 545.42-35.01 550.77-35.01 537.26 0ZM556.74 0L556.74-35.01 582.26-35.01 582.26-30 561.75-30 561.75-20 579.25-20 579.25-14.99 561.75-14.99 561.75-5 582.26-5 582.26 0 556.74 0ZM589.75-35.01L594.75-35.01 594.75-5 612.75-5 612.75 0 589.75 0 589.75-35.01ZM648.76-30L648.76-5Q648.76-3.98 648.37-3.06 647.97-2.15 647.29-1.46 646.61-0.78 645.69-0.39 644.78 0 643.75 0L643.75 0 623.76 0Q622.73 0 621.82-0.39 620.9-0.78 620.22-1.46 619.53-2.15 619.14-3.06 618.75-3.98 618.75-5L618.75-5 618.75-30Q618.75-31.03 619.14-31.95 619.53-32.86 620.22-33.53 620.9-34.2 621.82-34.61 622.73-35.01 623.76-35.01L623.76-35.01 643.75-35.01Q644.78-35.01 645.69-34.61 646.61-34.2 647.29-33.53 647.97-32.86 648.37-31.95 648.76-31.03 648.76-30L648.76-30ZM643.75-30L623.76-30 623.76-5 643.75-5 643.75-30ZM662.74 0L657.74 0 657.74-35.01 676.9-35.01Q685.4-35.01 685.4-26.49L685.4-26.49 685.4-21.51Q685.4-12.99 676.9-12.99L676.9-12.99 662.74-12.99 662.74 0ZM662.74-30L662.74-17.99 676.63-17.99Q678.64-17.99 679.52-18.87 680.39-19.75 680.39-21.75L680.39-21.75 680.39-26.25Q680.39-28.25 679.52-29.13 678.64-30 676.63-30L676.63-30 662.74-30ZM692.38 0L692.38-35.01 717.89-35.01 717.89-30 697.38-30 697.38-20 714.89-20 714.89-14.99 697.38-14.99 697.38-5 717.89-5 717.89 0 692.38 0ZM753.05-26.49L753.05-22.51Q753.05-15.19 746.8-14.16L746.8-14.16 753.39 0 747.85 0 741.35-13.99 730.39-13.99 730.39 0 725.38 0 725.38-35.01 744.55-35.01Q753.05-35.01 753.05-26.49L753.05-26.49ZM730.39-30L730.39-18.99 744.28-18.99Q746.28-18.99 747.16-19.87 748.04-20.75 748.04-22.75L748.04-22.75 748.04-26.25Q748.04-28.25 747.16-29.13 746.28-30 744.28-30L744.28-30 730.39-30Z" opacity="1" transform="matrix(1,0,0,1,0,0)" fill="#000000" class="slogan-text-1" data-fill-palette-color="secondary" id="text-1"></path></svg></g></svg></g></svg></g></svg></g></svg></g><defs></defs></svg><rect width="395.52" height="76.18270504269007" fill="none" stroke="none" visibility="hidden"></rect></g></svg></g></svg>